# xmcd
#
# Track frame offsets: 
#        150
#        13812
#        30890
#        45916
#        65464
#        77765
#        102320
#        115352
#        134133
#        153392
#        167223
#
# Disc length: 2457 seconds
#
# Revision: 0
# Processed by: cddbd v1.5.2PL0 Copyright (c) Steve Scherf et al.
# Submitted via: ExactAudioCopy v0.99pb4
#
DISCID=8a09970b
DTITLE=Little Joe - The Hard Way
DYEAR=2005
DGENRE=Blues
TTITLE0=First Shot Got 'Em
TTITLE1=No Matter How She Done It
TTITLE2=Month of Sundays
TTITLE3=Hey Hey Daddy Blues
TTITLE4=Sailor Blues
TTITLE5=Death Don't Have No Mercy
TTITLE6=Terrible Operation Blues
TTITLE7=Sgt. Sunday
TTITLE8=Long Tall Mama
TTITLE9=Suburban Housewife Blues
TTITLE10=Pearly Gates
EXTD=
EXTT0=
EXTT1=
EXTT2=
EXTT3=
EXTT4=
EXTT5=
EXTT6=
EXTT7=
EXTT8=
EXTT9=
EXTT10=
PLAYORDER=
